<svg id="Layer_1" enable-background="new 0 0 511.822 511.822" height="50" viewBox="0 0 511.822 511.822" width="50"
     xmlns="http://www.w3.org/2000/svg">
  <g>
    <g>
      <path d="m342.321 467.757v36.62h-172.75v-36.62c0-19.52 15.83-35.35 35.36-35.35h102.03c19.53 0 35.36 15.83 35.36 35.35z"
            fill="#00ed83"/>
      <path d="m342.321 467.757v36.62h-27.4v-36.62c0-19.52-15.84-35.35-35.37-35.35h27.41c19.53 0 35.36 15.83 35.36 35.35z"
            fill="#00cb71"/>
    </g>
    <path d="m240.948 405.498v29.911c0 8.28 6.716 14.993 15 14.993s15-6.713 15-14.993v-29.91z" fill="#00cb71"/>
    <path d="m441.998 225.848c-1.36 12.26-11.28 22.1-23.56 23.37-4.56.47-8.93-.21-12.83-1.8v65.6c0 26.8-16.9 50.7-42.19 59.64l-24.96 8.82-64.09 22.66c-12.54 4.44-26.23 4.44-38.77 0l-89.05-31.48c-25.28-8.94-42.18-32.84-42.18-59.64v-64.9c-2.55.81-5.26 1.25-8.08 1.25-15.23 0-27.46-12.82-26.51-28.25.79-12.96 11.15-23.63 24.09-24.78 3.68-.32 7.23.1 10.5 1.14v-19.48c0-72.18 50.76-132.5 118.54-147.2 2.16-6.79 6.43-12.64 12.03-16.8.47-.35.95-.69 1.44-1.01 5.33-3.55 11.73-5.61 18.61-5.61 15.02 0 27.74 9.84 32.08 23.42 67.77 14.7 118.54 75.02 118.54 147.2v20.18c3.09-1.25 6.46-1.95 10-1.95 15.67 0 28.18 13.58 26.39 29.62z"
          fill="#00ed83"/>
    <path d="m441.998 225.848c-1.36 12.26-11.28 22.1-23.56 23.37-4.56.47-8.93-.21-12.83-1.8v65.6c0 26.8-16.9 50.7-42.19 59.64l-24.96 8.82-.04-.11c25.29-8.94 42.19-32.54 42.19-59.35v-72.36c7.21-6.56 11.73-16.01 11.73-26.52s-4.52-19.96-11.73-26.52v-13.62c0-72.18-50.77-132.5-118.54-147.2-3.71-11.6-13.54-20.48-25.69-22.81 5.33-3.55 11.73-5.61 18.61-5.61 15.02 0 27.74 9.84 32.08 23.42 67.77 14.7 118.54 75.02 118.54 147.2v20.18c3.09-1.25 6.46-1.95 10-1.95 15.67 0 28.18 13.58 26.39 29.62z"
          fill="#00cb71"/>
    <g>
      <g>
        <g>
          <circle cx="194.104" cy="201.723" fill="#ffe3c0" r="47.144"/>
        </g>
        <g>
          <circle cx="317.792" cy="201.723" fill="#ffe3c0" r="47.144"/>
        </g>
      </g>
      <g>
        <path d="m298.104 344.278h-84.313c-18.139 0-32.844-14.705-32.844-32.844 0-18.139 14.705-32.844 32.844-32.844h84.313c18.139 0 32.844 14.705 32.844 32.844 0 18.139-14.705 32.844-32.844 32.844z"
              fill="#ffe3c0"/>
      </g>
    </g>
  </g>
  <g>
    <path d="m204.448 480.319c-4.143 0-7.5 3.358-7.5 7.5v16.558c.344 9.931 14.66 9.923 15 0v-16.558c0-4.142-3.358-7.5-7.5-7.5z"/>
    <path d="m307.448 480.319c-4.143 0-7.5 3.358-7.5 7.5v16.558c.344 9.931 14.66 9.923 15 0v-16.558c0-4.142-3.358-7.5-7.5-7.5z"/>
    <path d="m203.45 219.165c4.143 0 7.5-3.358 7.5-7.5v-19.885c-.344-9.931-14.66-9.923-15 0v19.885c0 4.142 3.357 7.5 7.5 7.5z"/>
    <path d="m248.747 201.722c0-30.131-24.513-54.644-54.644-54.644-72.494 3.002-72.472 106.298 0 109.289 30.132 0 54.644-24.514 54.644-54.645zm-94.288 0c0-21.86 17.784-39.644 39.645-39.644 52.593 2.178 52.577 77.119 0 79.289-21.86 0-39.645-17.785-39.645-39.645z"/>
    <path d="m263.147 201.722c0 30.131 24.514 54.645 54.645 54.645 4.143 0 7.5-3.358 7.5-7.5s-3.357-7.5-7.5-7.5c-52.591-2.175-52.581-77.119 0-79.289 36.434.002 53.502 45.682 26.023 69.552-3.123 2.721-3.45 7.458-.729 10.582 2.72 3.123 7.457 3.45 10.581.73 37.873-32.908 14.333-95.868-35.876-95.863-30.13-.001-54.644 24.513-54.644 54.643z"/>
    <path d="m300.946 191.582v19.885c.344 9.931 14.66 9.923 15 0v-19.885c-.344-9.931-14.66-9.923-15 0z"/>
    <path d="m149.048 365.585c-22.241-7.864-37.185-28.99-37.185-52.57v-64.902c0-2.393-1.143-4.643-3.074-6.055-1.932-1.412-4.419-1.817-6.703-1.091-6.889 2.231-14.77.233-19.689-5.112-3.64-3.871-5.464-8.94-5.135-14.276.571-9.306 7.994-16.945 17.265-17.768 2.59-.232 5.136.044 7.561.817 2.281.727 4.771.321 6.702-1.091 1.932-1.413 3.074-3.662 3.074-6.055v-19.484c0-27.663 7.902-54.502 22.854-77.617 2.249-3.478 1.253-8.121-2.225-10.371-3.477-2.249-8.121-1.253-10.371 2.224-16.523 25.547-25.258 55.204-25.258 85.764v10.738c-17.936-.447-33.561 14-34.574 31.922-1.62 19.393 15.223 36.83 34.574 36.2v56.157c0 29.924 18.962 56.733 47.185 66.712 3.801 1.375 8.196-.628 9.571-4.571 1.38-3.905-.666-8.19-4.572-9.571z"/>
    <path d="m440.997 200.089c-6.995-7.847-17.415-12.053-27.892-11.267v-10.825c0-36.324-12.623-71.8-35.544-99.894-21.729-26.631-51.756-45.594-84.914-53.712-14.192-32.53-61.144-32.516-75.326-.001-27.68 6.763-52.991 20.91-73.419 41.076-2.947 2.91-2.978 7.659-.067 10.606 2.909 2.948 7.658 2.978 10.606.068 19.377-19.129 43.602-32.274 70.054-38.012 2.622-.569 4.74-2.494 5.556-5.05 7.79-24.157 42.085-24.145 49.867 0 .815 2.556 2.934 4.481 5.556 5.05 65.264 14.157 112.632 72.98 112.632 139.868v20.182c0 2.496 1.242 4.829 3.313 6.223 2.071 1.393 4.699 1.667 7.012.725 7.273-3.04 16.186-.974 21.389 4.964 3.664 4.095 5.343 9.396 4.727 14.927-.978 8.787-8.076 15.826-16.878 16.738-3.206.331-6.318-.1-9.238-1.287-2.314-.941-4.942-.667-7.012.726-2.07 1.394-3.312 3.726-3.312 6.222v65.599c0 23.58-14.943 44.706-37.185 52.57l-89.049 31.486c-10.892 3.85-22.886 3.85-33.775 0l-57.934-20.484c-3.9-1.381-8.19.665-9.571 4.571-1.381 3.905.666 8.19 4.571 9.571l57.934 20.484c.117.041.234.081.351.122v13.575h-28.513c-23.634 0-42.861 19.22-42.861 42.845v36.622c.344 9.931 14.66 9.923 15 0v-36.622c0-15.354 12.498-27.845 27.861-27.845h28.964c5.301 23.87 38.803 23.853 44.094 0h28.964c15.362 0 27.861 12.491 27.861 27.845v36.622c.344 9.931 14.66 9.923 15 0v-36.622c0-23.625-19.228-42.845-42.861-42.845h-28.512v-14.254l87.474-30.929c28.223-9.979 47.185-36.788 47.185-66.712v-56.249c2.027.149 4.072.12 6.108-.091 27.402-2.752 40.218-36.229 21.784-56.586zm-177.549 235.32c-.353 9.92-14.65 9.912-15 0v-20.778c4.99.497 10.026.423 15-.22z"/>
    <path d="m173.448 311.434c0 22.246 18.098 40.344 40.344 40.344h84.312c53.535-2.222 53.493-78.485 0-80.688h-84.312c-22.247.001-40.344 18.099-40.344 40.344zm150 0c0 13.975-11.369 25.344-25.344 25.344h-84.312c-33.63-1.396-33.604-49.304 0-50.688h84.312c13.975.001 25.344 11.37 25.344 25.344z"/>
    <path d="m218.304 315.572c24.527 5.811 50.76 5.811 75.287 0 4.031-.951 6.529-4.99 5.578-9.021-.951-4.032-4.996-6.527-9.021-5.578-22.293 5.259-46.107 5.259-68.4 0-4.031-.949-8.07 1.546-9.021 5.578-.952 4.03 1.546 8.069 5.577 9.021z"/>
    <path d="m299.372 76.274c0-4.142-3.358-7.5-7.5-7.5-9.928.343-9.926 14.658 0 15 4.143 0 7.5-3.358 7.5-7.5z"/>
    <path d="m345.072 112.274c0-4.142-3.358-7.5-7.5-7.5-9.928.343-9.926 14.658 0 15 4.142 0 7.5-3.358 7.5-7.5z"/>
    <path d="m141.142 298.203c4.142 0 7.5-3.358 7.5-7.5-.343-9.928-14.658-9.926-15 0 0 4.142 3.358 7.5 7.5 7.5z"/>
  </g>
</svg>
