<svg id="Layer_1" enable-background="new 0 0 511.945 511.945" height="50" viewBox="0 0 511.945 511.945" width="50"
     xmlns="http://www.w3.org/2000/svg">
  <g>
    <path d="m342.431 467.88v36.62h-172.75v-36.62c0-19.52 15.83-35.35 35.36-35.35h102.03c19.53 0 35.36 15.83 35.36 35.35z"
          fill="#2ad7f5"/>
    <path d="m342.431 467.88v36.62h-27.4v-36.62c0-19.52-15.84-35.35-35.37-35.35h27.41c19.53 0 35.36 15.83 35.36 35.35z"
          fill="#00bff0"/>
    <path d="m241.056 405.622v29.911c0 8.28 6.716 14.993 15 14.993 8.284 0 15-6.712 15-14.993v-29.91z" fill="#ffddce"/>
    <path d="m441.277 212.921c0 14.67-11.9 26.56-26.57 26.56-2.8 0-5.49-.43-8.03-1.23v74.89c0 26.8-16.9 50.7-42.18 59.64l-29.79 10.53h-.01l-59.25 20.95c-12.55 4.44-26.23 4.44-38.78 0l-89.05-31.48c-25.28-8.94-42.18-32.84-42.18-59.64v-74.89c-2.54.8-5.23 1.23-8.03 1.23-14.67 0-26.57-11.89-26.57-26.56s11.9-26.57 26.57-26.57c2.8 0 5.49.44 8.03 1.24v-50.48l150.62-94.68 119.17 74.91 31.45 19.77v50.48c2.54-.8 5.23-1.24 8.03-1.24 14.67 0 26.57 11.9 26.57 26.57z"
          fill="#ffede3"/>
    <path d="m441.277 212.921c0 14.67-11.9 26.56-26.57 26.56-2.8 0-5.49-.43-8.03-1.23v74.89c0 26.8-16.9 50.7-42.18 59.64l-29.79 10.53c24.36-9.38 40.52-32.38 40.52-58.59v-207.38l31.45 19.77v50.48c2.54-.8 5.23-1.24 8.03-1.24 14.67 0 26.57 11.9 26.57 26.57z"
          fill="#ffddce"/>
    <path d="m422.187 91.081v46.03h-81.45c-46.77 0-84.68-37.91-84.68-84.68 0 46.77-37.91 84.68-84.68 84.68h-81.45v-46.03c0-46.16 37.42-83.58 83.58-83.58h165.1c46.16 0 83.58 37.42 83.58 83.58z"
          fill="#c76e59"/>
    <path d="m422.187 91.081v46.03h-35v-46.03c0-46.16-37.42-83.58-83.58-83.58h35c46.16 0 83.58 37.42 83.58 83.58z"
          fill="#a24f3e"/>
    <path d="m406.677 167.251v92.4l-31.45 4.93-119.17 18.67-150.62-24.42v-91.58z" fill="#2ad7f5"/>
    <path d="m406.677 167.251v92.4l-31.45 4.93v-97.33z" fill="#00bff0"/>
  </g>
  <g>
    <path d="m204.558 480.442c-4.142 0-7.5 3.358-7.5 7.5v16.558c.344 9.931 14.659 9.923 15 0v-16.558c0-4.142-3.358-7.5-7.5-7.5z"/>
    <path d="m307.557 480.442c-4.143 0-7.5 3.358-7.5 7.5v16.558c.344 9.931 14.66 9.923 15 0v-16.558c0-4.142-3.357-7.5-7.5-7.5z"/>
    <path d="m414.71 178.854c-.177 0-.354.001-.531.004v-34.247h8.009c4.143 0 7.5-3.358 7.5-7.5v-46.032c0-50.221-40.858-91.079-91.079-91.079h-130.238c-9.931.344-9.923 14.659 0 15h130.238c41.95 0 76.079 34.129 76.079 76.079v38.532h-73.947c-42.559 0-77.184-34.624-77.184-77.183 0-4.142-3.357-7.5-7.5-7.5-4.142 0-7.5 3.358-7.5 7.5 0 42.559-34.624 77.183-77.183 77.183h-73.947v-38.532c0-41.95 34.129-76.079 76.079-76.079 4.142 0 7.5-3.358 7.5-7.5s-3.358-7.5-7.5-7.5c-50.221 0-91.079 40.858-91.079 91.079v46.032c0 4.142 3.358 7.5 7.5 7.5h8.009v34.247c-18.965-.311-34.615 15.092-34.597 34.061-.018 18.969 15.632 34.373 34.597 34.062v66.158c0 29.924 18.962 56.733 47.185 66.712 3.801 1.375 8.196-.628 9.571-4.571 1.381-3.905-.666-8.19-4.571-9.571-22.241-7.864-37.185-28.991-37.185-52.57v-45.491l141.921 23.004c.782.127 1.579.129 2.361.006l141.961-22.243v44.724c0 23.58-14.943 44.706-37.186 52.57l-89.049 31.486c-10.891 3.851-22.884 3.851-33.775 0l-58.613-20.724c-3.907-1.383-8.19.666-9.571 4.571s.666 8.19 4.571 9.571l58 20.508v13.914h-28.512c-9.748 0-18.745 3.27-25.954 8.77l-8.465-8.465c-2.929-2.929-7.678-2.929-10.606 0-2.929 2.929-2.929 7.678 0 10.606l8.9 8.9c-4.262 6.656-6.735 14.562-6.735 23.034v36.62c.344 9.931 14.659 9.923 15 0v-36.622c0-4.307.984-8.388 2.738-12.032l5.567 5.567c2.929 2.929 7.678 2.929 10.606 0 2.929-2.929 2.929-7.678 0-10.606l-6.253-6.253c4.375-2.858 9.598-4.521 15.203-4.521h28.965c5.3 23.869 38.804 23.853 44.094 0h28.965c5.604 0 10.828 1.663 15.202 4.52l-6.253 6.253c-2.929 2.929-2.929 7.678 0 10.606 2.93 2.929 7.677 2.929 10.607 0l5.567-5.567c1.754 3.644 2.738 7.725 2.738 12.032v36.623c.344 9.931 14.66 9.923 15 0v-36.622c0-8.472-2.473-16.378-6.735-23.034l8.9-8.9c2.929-2.929 2.929-7.678 0-10.606-2.93-2.929-7.678-2.929-10.607 0l-8.465 8.465c-7.208-5.499-16.206-8.769-25.953-8.769h-28.513v-13.914l88.437-31.27c28.224-9.979 47.186-36.788 47.186-66.712v-66.158c45.571-1.256 46.054-66.171.53-68.126zm-151.153 256.678c-.353 9.92-14.65 9.913-14.999 0v-20.88c4.981.57 10.018.57 14.999 0zm-166.153-203.548c-10.513 0-19.065-8.553-19.065-19.065-.018-10.697 8.905-19.373 19.597-19.057v38.114c-.177.005-.354.008-.532.008zm158.673 43.669-143.141-23.201v-77.704h174.208c9.931-.344 9.923-14.66 0-15h-174.208v-15.136h58.438c37.902 0 70.536-22.994 84.683-55.764 14.148 32.77 46.781 55.764 84.683 55.764h58.438v15.136h-76.513c-9.931.344-9.923 14.66 0 15h76.513v78.483zm158.633-43.669c-.177 0-.354-.003-.531-.008v-38.114c10.692-.316 19.614 8.36 19.597 19.057 0 10.513-8.553 19.065-19.066 19.065z"/>
    <path d="m299.279 310.673c-.951-4.032-4.999-6.526-9.021-5.578-22.293 5.258-46.108 5.259-68.4 0-4.026-.947-8.071 1.546-9.021 5.578-.951 4.031 1.546 8.07 5.578 9.021 24.527 5.811 50.76 5.811 75.287 0 4.03-.95 6.528-4.989 5.577-9.021z"/>
    <path d="m267.823 340.544c-7.667 1.808-15.862 1.809-23.531 0-4.03-.95-8.071 1.547-9.021 5.578-.951 4.032 1.547 8.071 5.578 9.021 9.916 2.348 20.502 2.348 30.417 0 9.581-2.61 6.3-16.541-3.443-14.599z"/>
    <path d="m179.566 205.12c-4.142 0-7.5 3.358-7.5 7.5v21.277c.344 9.931 14.659 9.923 15 0v-21.277c0-4.142-3.358-7.5-7.5-7.5z"/>
    <path d="m332.536 205.12c-4.143 0-7.5 3.358-7.5 7.5v21.277c.344 9.931 14.66 9.923 15 0v-21.277c0-4.142-3.358-7.5-7.5-7.5z"/>
    <path d="m266.878 234.59h-12.672c1.91-7.919 5.647-18.502 12.005-24.857 2.93-2.928 2.931-7.677.003-10.607-2.93-2.93-7.679-2.93-10.606-.002-14.725 14.717-17.721 41.047-17.841 42.161-.229 2.117.453 4.231 1.875 5.816 1.423 1.584 3.452 2.49 5.581 2.49h21.655c9.931-.345 9.924-14.661 0-15.001z"/>
    <path d="m174.41 341.627c0 4.142 3.358 7.5 7.5 7.5s7.5-3.358 7.5-7.5c0-30.256-19.705-43.202-30.125-45.821-4.018-1.008-8.092 1.43-9.102 5.446-1.009 4.018 1.429 8.092 5.446 9.102.188.047 18.781 5.023 18.781 31.273z"/>
  </g>
</svg>
