<svg id="Layer_1" enable-background="new 0 0 511.945 511.945" height="50" viewBox="0 0 511.945 511.945" width="50"
     xmlns="http://www.w3.org/2000/svg">
  <g>
    <g>
      <path d="m342.344 467.88v36.62h-172.75v-36.62c0-19.52 15.83-35.35 35.36-35.35h102.03c19.53 0 35.36 15.83 35.36 35.35z"
            fill="#938ee0"/>
      <path d="m342.344 467.88v36.62h-27.4v-36.62c0-19.52-15.84-35.35-35.37-35.35h27.41c19.53 0 35.36 15.83 35.36 35.35z"
            fill="#6e67d5"/>
    </g>
    <path d="m406.595 187.491v125.649c0 26.8-16.9 50.7-42.19 59.64l-29.34 10.37-59.71 21.12c-12.54 4.43-26.23 4.43-38.77 0l-89.05-31.49c-25.28-8.94-42.19-32.84-42.19-59.64v-125.649c0-83.15 67.44-150.549 150.63-150.549 8.98 0 17.77.79 26.32 2.29 31.05 5.47 58.81 20.44 80.18 41.8 27.26 27.249 44.12 64.889 44.12 106.459z"
          fill="#ffe3c0"/>
    <path d="m362.475 81.031c27.26 27.25 44.12 64.89 44.12 106.459v125.65c0 26.8-16.9 50.7-42.19 59.64l-29.34 10.37c24.37-9.37 40.53-32.8 40.53-59.01v-145.649c0-41.57-16.86-79.21-44.12-106.459-13.95-13.95-30.64-25.17-49.18-32.8 31.05 5.469 58.81 20.439 80.18 41.799z"
          fill="#fcd0a2"/>
    <path d="m240.97 405.621v29.911c0 8.28 6.716 14.993 15 14.993 8.284 0 15-6.712 15-14.993v-29.91z" fill="#fcd0a2"/>
    <path d="m420.973 92.331v161.26c-9.62 1.6-19.29 3.05-29 4.37-44.47 6.04-89.87 9.15-136 9.15-56.2 0-111.32-4.62-165-13.52v-161.26c0-46.85 37.98-84.83 84.84-84.83h160.32c46.85 0 84.84 37.98 84.84 84.83z"
          fill="#938ee0"/>
    <path d="m420.973 92.331v161.26c-9.62 1.6-19.29 3.05-29 4.37v-165.63c0-46.85-37.99-84.83-84.84-84.83h29c46.85 0 84.84 37.98 84.84 84.83z"
          fill="#6e67d5"/>
    <path d="m420.973 153.591v60c-9.62 1.6-19.29 3.05-29 4.37-44.47 6.04-89.87 9.15-136 9.15-56.2 0-111.32-4.62-165-13.52v-60c53.68 8.9 108.8 13.52 165 13.52 46.13 0 91.53-3.11 136-9.15 9.71-1.32 19.38-2.77 29-4.37z"
          fill="#eef5f6"/>
    <path d="m256.773 117.222-25.061-32.87 25.061-32.869 25.06 32.869z" fill="#eef5f6"/>
    <path d="m420.973 153.591v60c-9.62 1.6-19.29 3.05-29 4.37v-60c9.71-1.32 19.38-2.77 29-4.37z" fill="#d6eaec"/>
  </g>
  <g>
    <path d="m204.471 480.442c-4.142 0-7.5 3.358-7.5 7.5v16.558c.344 9.931 14.659 9.923 15 0v-16.558c0-4.142-3.358-7.5-7.5-7.5z"/>
    <path d="m307.471 480.442c-4.142 0-7.5 3.358-7.5 7.5v16.558c.344 9.931 14.659 9.923 15 0v-16.558c0-4.142-3.358-7.5-7.5-7.5z"/>
    <path d="m336.133 0h-125.882c-9.931.344-9.923 14.659 0 15h125.882c42.646 0 77.34 34.69 77.34 77.331v54.88c-103.504 16.517-211.495 16.517-315 0v-54.88c0-42.64 34.695-77.331 77.34-77.331 4.142 0 7.5-3.358 7.5-7.5s-3.358-7.5-7.5-7.5c-50.916 0-92.34 41.419-92.34 92.331v161.261c0 3.669 2.654 6.799 6.273 7.399 2.698.447 5.399.883 8.103 1.308v50.837c0 29.924 18.962 56.734 47.185 66.712 3.801 1.375 8.196-.628 9.571-4.571 1.381-3.905-.666-8.19-4.571-9.571-22.241-7.864-37.185-28.991-37.185-52.571v-48.594c94.364 13.413 191.879 13.413 286.243.001v48.593c0 23.58-14.943 44.707-37.185 52.571l-89.05 31.487c-10.889 3.851-22.883 3.851-33.774 0l-58.428-20.66c-3.907-1.382-8.191.665-9.571 4.571-1.381 3.905.666 8.19 4.57 9.571l57.816 20.443v13.914h-28.512c-23.634 0-42.861 19.22-42.861 42.845v36.623c.344 9.931 14.659 9.923 15 0v-36.622c0-15.354 12.499-27.845 27.861-27.845h28.965c5.3 23.87 38.804 23.853 44.094 0h28.965c15.362 0 27.861 12.491 27.861 27.845v36.622c.344 9.931 14.659 9.923 15 0v-36.622c0-23.625-19.228-42.845-42.861-42.845h-28.512v-13.914l88.437-31.27c28.223-9.979 47.185-36.789 47.185-66.712v-50.837c2.706-.426 5.408-.862 8.107-1.309 3.62-.6 6.273-3.73 6.273-7.399v-161.261c.001-50.912-41.423-92.331-92.339-92.331zm-72.662 435.532c-.353 9.92-14.65 9.912-15 0v-20.881c4.982.57 10.018.57 15 0zm-164.998-188.32v-24.815c69.412 10.888 141.023 14.526 211.492 10.797 9.877-.855 9.159-15.153-.789-14.979-70.211 3.717-141.592.008-210.703-11.003v-44.815c103.563 16.27 211.437 16.27 315 0v44.815c-23.004 3.66-46.4 6.542-69.64 8.576-4.126.361-7.179 3.999-6.818 8.125.346 4.138 4.061 7.193 8.125 6.818 22.797-1.995 45.741-4.795 68.333-8.334v24.815c-103.505 16.516-211.495 16.516-315 0z"/>
    <path d="m397.696 187.197c-.55-4.105-4.323-6.994-8.43-6.438-87.804 11.79-178.782 11.79-266.586 0-4.114-.556-7.879 2.333-8.43 6.438-.55 4.105 2.332 7.879 6.438 8.43 89.124 11.967 181.447 11.967 270.571 0 4.105-.551 6.987-4.325 6.437-8.43z"/>
    <path d="m299.192 306.672c-.951-4.032-4.99-6.525-9.022-5.578-22.29 5.26-46.109 5.26-68.399 0-4.03-.948-8.071 1.546-9.022 5.578-.951 4.031 1.546 8.071 5.578 9.022 24.526 5.811 50.762 5.811 75.288 0 4.03-.951 6.528-4.99 5.577-9.022z"/>
    <path d="m267.735 336.544c-7.664 1.809-15.866 1.809-23.53 0-4.03-.949-8.07 1.546-9.022 5.578-.951 4.031 1.546 8.071 5.578 9.022 9.912 2.348 20.507 2.348 30.418 0 9.587-2.618 6.295-16.541-3.444-14.6z"/>
    <path d="m256.773 124.722c2.34 0 4.545-1.092 5.964-2.953l25.061-32.87c2.047-2.686 2.047-6.409 0-9.095l-25.061-32.87c-2.812-3.895-9.117-3.894-11.929 0l-25.061 32.87c-2.047 2.686-2.047 6.409 0 9.095l25.061 32.87c1.42 1.861 3.625 2.953 5.965 2.953zm0-60.869 15.629 20.5-15.629 20.5-15.629-20.5z"/>
    <path d="m174.324 341.627c0 4.142 3.358 7.5 7.5 7.5s7.5-3.358 7.5-7.5c0-30.256-19.706-43.203-30.125-45.821-4.021-1.008-8.129 1.419-9.139 5.437-1.009 4.017 1.391 8.083 5.408 9.092.769.211 18.856 5.47 18.856 31.292z"/>
    <g>
      <path d="m210.535 125.008c-4.142 0-7.5 3.358-7.5 7.5.343 9.928 14.658 9.926 15 0 0-4.142-3.358-7.5-7.5-7.5z"/>
      <path d="m129.475 117.418c-4.142 0-7.5 3.358-7.5 7.5.343 9.928 14.658 9.926 15 0 0-4.142-3.358-7.5-7.5-7.5z"/>
      <path d="m303.015 125.008c-4.142 0-7.5 3.358-7.5 7.5.343 9.928 14.658 9.926 15 0 0-4.142-3.358-7.5-7.5-7.5z"/>
      <path d="m382.475 117.418c-4.142 0-7.5 3.358-7.5 7.5.343 9.928 14.658 9.926 15 0 0-4.142-3.358-7.5-7.5-7.5z"/>
    </g>
  </g>
</svg>
